<?xml version="1.0" encoding="UTF-8" standalone="no"?>
<!-- Generator: Adobe Illustrator 21.1.0, SVG Export Plug-In . SVG Version: 6.00 Build 0)  -->

<svg
   xmlns:dc="http://purl.org/dc/elements/1.1/"
   xmlns:cc="http://creativecommons.org/ns#"
   xmlns:rdf="http://www.w3.org/1999/02/22-rdf-syntax-ns#"
   xmlns:svg="http://www.w3.org/2000/svg"
   xmlns="http://www.w3.org/2000/svg"
   xmlns:sodipodi="http://sodipodi.sourceforge.net/DTD/sodipodi-0.dtd"
   xmlns:inkscape="http://www.inkscape.org/namespaces/inkscape"
   version="1.1"
   x="0px"
   y="0px"
   viewBox="0 0 51 28"
   style="enable-background:new 0 0 51 28;"
   xml:space="preserve"
   id="svg14"
   sodipodi:docname="logo-icon.svg"
   inkscape:version="0.92.2 (5c3e80d, 2017-08-06)"><metadata
     id="metadata20"><rdf:RDF><cc:Work
         rdf:about=""><dc:format>image/svg+xml</dc:format><dc:type
           rdf:resource="http://purl.org/dc/dcmitype/StillImage" /></cc:Work></rdf:RDF></metadata><defs
     id="defs18" /><sodipodi:namedview
     pagecolor="#ffffff"
     bordercolor="#666666"
     borderopacity="1"
     objecttolerance="10"
     gridtolerance="10"
     guidetolerance="10"
     inkscape:pageopacity="0"
     inkscape:pageshadow="2"
     inkscape:window-width="1920"
     inkscape:window-height="1027"
     id="namedview16"
     showgrid="false"
     inkscape:zoom="6.7254902"
     inkscape:cx="6.9883382"
     inkscape:cy="14"
     inkscape:window-x="-8"
     inkscape:window-y="-8"
     inkscape:window-maximized="1"
     inkscape:current-layer="svg14" /><style
     type="text/css"
     id="style2">
	.st0{fill:#FFFFFF;}
	.st1{display:none;}
	.st2{display:inline;fill:url(#Shape_2_);}
</style><g
     id="Ebene_2"
     class="st1"><linearGradient
       id="Shape_2_"
       gradientUnits="userSpaceOnUse"
       x1="-219.9378"
       y1="301.6573"
       x2="-219.9378"
       y2="301.8836"
       gradientTransform="matrix(220.9333 0 0 118.3742 48617.082 -35707.8359)"><stop
         offset="0"
         style="stop-color:#BFD5E0"
         id="stop7" /><stop
         offset="1"
         style="stop-color:#90ACBB"
         id="stop9" /></linearGradient><path
       id="Shape_1_"
       class="st2"
       d="M11.3,8.9c-0.3-0.5-0.5-1.1-0.5-1.7c0-1.9,1.6-3.5,3.5-3.5c0.7,0,1.4,0.2,1.9,0.6   c-0.4,0.9-0.6,1.9-0.6,3c0,0.2,0,0.4,0,0.6c-0.1,0-0.3,0-0.4,0C13.8,7.8,12.5,8.2,11.3,8.9L11.3,8.9z M10.5,22.3   c-2-1.4-3.3-3.8-3.3-6.5c0-0.7,0.1-1.3,0.2-2c-0.1,0-0.1,0-0.2,0c-3.7,0-6.7,3-6.7,6.7c0,3.7,3,6.7,6.7,6.7c1.4,0,2.7-0.4,3.8-1.2   c-0.5-0.7-0.7-1.5-0.7-2.4C10.3,23.2,10.4,22.7,10.5,22.3L10.5,22.3z M10.8,21.6c0.6-1.2,1.7-2,3-2.3c0.1,0,0.2,0,0.4-0.1   c0.1,0,0.2,0,0.4,0c0.1,0,0.1,0,0.2,0c0.2,0,0.4,0,0.6,0c-0.1-0.5-0.1-0.9-0.1-1.4c0-2.2,0.7-4.3,2-6c-0.3-0.3-0.5-0.7-0.7-1.1   c-0.1-0.1-0.1-0.2-0.2-0.3c0-0.1-0.1-0.2-0.2-0.3c-0.2-0.5-0.3-1-0.4-1.5c-0.2,0-0.3,0-0.5,0c-1.3,0-2.5,0.3-3.5,0.9   c-0.1,0.1-0.2,0.1-0.3,0.2c-0.1,0.1-0.2,0.1-0.3,0.2c-1.2,0.8-2.1,2-2.7,3.3c0,0.1-0.1,0.2-0.1,0.4c0,0.1-0.1,0.2-0.1,0.4   C8.1,14.5,8,15.2,8,15.8C7.9,18.2,9.1,20.3,10.8,21.6L10.8,21.6z M34.4,13c1-0.5,2.1-0.8,3.2-0.9c-0.3-3.4-3.2-6.1-6.7-6.1   c-0.1,0-0.3,0-0.4,0c0.1,0.4,0.1,0.8,0.1,1.2c0,0.6-0.1,1.2-0.2,1.8C32.1,10,33.5,11.4,34.4,13L34.4,13z M16.5,8.3   c0,0.1,0,0.3,0.1,0.4c0.1,0.3,0.2,0.6,0.3,0.9c0,0.1,0.1,0.2,0.2,0.4c0,0.1,0.1,0.2,0.2,0.4c0.2,0.3,0.4,0.7,0.6,1   c0.5-0.5,1-1,1.6-1.4c0.1-0.1,0.2-0.2,0.3-0.2c0.1-0.1,0.2-0.2,0.3-0.2c1.5-1,3.4-1.6,5.3-1.6c0,0,0.1,0,0.1,0c0.1,0,0.2,0,0.4,0   c0.2,0,0.3,0,0.5,0c1.2,0.1,2.3,0.4,3.3,0.9c0.1-0.5,0.2-1,0.2-1.4c0-0.4,0-0.7-0.1-1.1c0-0.1,0-0.2-0.1-0.4c0-0.1-0.1-0.2-0.1-0.4   c-0.8-2.8-3.4-4.8-6.5-4.8c-2.5,0-4.8,1.4-5.9,3.5c-0.1,0.1-0.1,0.2-0.2,0.3C17,4.5,17,4.7,16.9,4.8c-0.3,0.8-0.5,1.6-0.5,2.5   c0,0.2,0,0.5,0,0.7C16.5,8,16.5,8.2,16.5,8.3L16.5,8.3z M46.8,19.6c-0.2,0-0.4,0-0.6,0c0,0.2,0,0.3,0,0.5c0,2.1-0.8,4-2.2,5.5   c0.7,0.8,1.7,1.3,2.8,1.3c2,0,3.7-1.6,3.7-3.6C50.5,21.2,48.8,19.6,46.8,19.6L46.8,19.6z M45.5,19.8c0-0.1,0-0.3,0-0.4   c0-0.1,0-0.2,0-0.4c-0.5-3.4-3.4-6-7-6.2c-0.1,0-0.2,0-0.3,0c0,0-0.1,0-0.1,0c-0.1,0-0.2,0-0.4,0c-1,0.1-2,0.4-2.9,0.8   c0.5,1.2,0.8,2.4,0.9,3.8c0,0.1,0,0.3,0,0.4c0,0,0,0.1,0,0.1c0,0.2,0,0.3,0,0.5c-0.2,2.5-1.2,4.8-2.9,6.5c1.3,1.5,3.3,2.4,5.4,2.4   c1.9,0,3.6-0.7,4.8-1.8c0.1-0.1,0.2-0.2,0.3-0.3c0.1-0.1,0.2-0.2,0.3-0.3c1.2-1.3,1.9-3,1.9-4.9C45.5,20,45.5,19.9,45.5,19.8   L45.5,19.8z M16.9,23.3c-0.1-0.1-0.1-0.2-0.2-0.3c-0.5-0.9-0.9-1.9-1.1-2.9C15.3,20,15,20,14.8,20c0,0,0,0-0.1,0   c-0.1,0-0.2,0-0.4,0c-0.1,0-0.2,0-0.4,0.1c-1.1,0.2-2,1-2.5,1.9c-0.1,0.1-0.1,0.2-0.2,0.4c0,0.1-0.1,0.2-0.1,0.4   c-0.1,0.3-0.1,0.6-0.1,0.9c0,0.7,0.2,1.4,0.5,1.9c0.1,0.1,0.1,0.2,0.2,0.3c0.1,0.1,0.2,0.2,0.2,0.3c0.7,0.7,1.6,1.1,2.7,1.1   c1.6,0,2.9-1,3.4-2.3c-0.4-0.4-0.8-0.9-1.1-1.3C17,23.5,16.9,23.4,16.9,23.3L16.9,23.3z M34.9,18.6c0-0.2,0-0.3,0-0.5   c0-0.1,0-0.2,0-0.2c0-1.3-0.3-2.6-0.8-3.8c0-0.1-0.1-0.2-0.2-0.3c0-0.1-0.1-0.2-0.2-0.3c-0.8-1.5-2.1-2.8-3.6-3.6   c-0.1-0.1-0.2-0.1-0.3-0.2c-0.1-0.1-0.2-0.1-0.3-0.2c-1.2-0.5-2.4-0.9-3.8-0.9c-0.1,0-0.1,0-0.2,0s-0.2,0-0.3,0c-0.2,0-0.3,0-0.5,0   c-1.5,0.1-2.9,0.6-4.1,1.3c-0.1,0.1-0.2,0.1-0.3,0.2c-0.1,0.1-0.2,0.2-0.3,0.2c-0.6,0.5-1.2,1-1.7,1.6c-0.1,0.1-0.2,0.2-0.2,0.3   c-0.1,0.1-0.2,0.2-0.2,0.3C16.7,14,16,15.8,16,17.8c0,0.5,0,1.1,0.1,1.6c0,0.1,0,0.3,0.1,0.4c0,0.2,0.1,0.3,0.1,0.5   c0.2,0.9,0.6,1.7,1,2.4c0.1,0.1,0.1,0.2,0.2,0.3c0.1,0.1,0.2,0.2,0.2,0.3c0.2,0.2,0.4,0.5,0.6,0.7c0.1,0.1,0.2,0.2,0.3,0.4   c0.1,0.1,0.2,0.2,0.3,0.3c1.7,1.5,3.9,2.5,6.4,2.5c2.4,0,4.5-0.9,6.2-2.3c0.1-0.1,0.2-0.2,0.3-0.2c0.1-0.1,0.2-0.2,0.3-0.3   c1.4-1.4,2.3-3.2,2.6-5.3C34.8,18.9,34.9,18.8,34.9,18.6L34.9,18.6z" /></g></svg>